<svg width="42" height="42" viewBox="0 0 42 42" fill="none" xmlns="http://www.w3.org/2000/svg">
<path d="M21 0.166687C9.51246 0.166687 0.166626 9.51252 0.166626 21C0.166626 32.4875 9.51246 41.8334 21 41.8334C32.4875 41.8334 41.8333 32.4875 41.8333 21C41.8333 9.51252 32.4875 0.166687 21 0.166687ZM11.127 34.3959C12.5104 30.1813 16.4291 27.25 21 27.25C25.5708 27.25 29.4895 30.1813 30.8729 34.3959C28.1062 36.4417 24.6979 37.6667 21 37.6667C17.302 37.6667 13.8937 36.4417 11.127 34.3959ZM15.7916 17.875C15.7916 15.0042 18.1291 12.6667 21 12.6667C23.8708 12.6667 26.2083 15.0042 26.2083 17.875C26.2083 20.7459 23.8708 23.0834 21 23.0834C18.1291 23.0834 15.7916 20.7459 15.7916 17.875ZM34.1041 31.2625C32.6895 28.3542 30.3562 26.0229 27.4979 24.6063C29.2645 22.9 30.375 20.5188 30.375 17.875C30.375 12.7063 26.1687 8.50002 21 8.50002C15.8312 8.50002 11.625 12.7063 11.625 17.875C11.625 20.5188 12.7354 22.9 14.502 24.6063C11.6437 26.0229 9.31038 28.3521 7.89579 31.2625C5.67288 28.4292 4.33329 24.8709 4.33329 21C4.33329 11.8104 11.8104 4.33335 21 4.33335C30.1895 4.33335 37.6666 11.8104 37.6666 21C37.6666 24.8709 36.327 28.4292 34.1041 31.2625Z" fill="black"/>
</svg>
